PathFileType	4	(X/Y/Z)	C:/Users/opensim2020/Desktop/walking_exp_matlab/subject01_walking11_straight_01.trc	
DataRate	CameraRate	NumFrames	NumMarkers	Units	OrigDataRate	OrigDataStartFrame	OrigNumFrames	
100.00	100.00	4	44	mm	100.00	1143	374	
Frame#	Time	LFHD			RFHD			LBHD			RBHD			C7			T10			CLAV			STRN			RBAK			LSHO			LUPA			LELB			LFRM			LWRA			LWRB			LFIN			RSHO			RUPA			RELB			RFRM			RWRA			RWRB			RFIN			LASI			RASI			LPSI			RPSI			LTHI			LKNE			LTIB			LANK			LHEE			LTOE			RTHI			RKNE			RTIB			RANK			RHEE			RTOE			*39			*40			*41			*42			*43			
		X1	Y1	Z1	X2	Y2	Z2	X3	Y3	Z3	X4	Y4	Z4	X5	Y5	Z5	X6	Y6	Z6	X7	Y7	Z7	X8	Y8	Z8	X9	Y9	Z9	X10	Y10	Z10	X11	Y11	Z11	X12	Y12	Z12	X13	Y13	Z13	X14	Y14	Z14	X15	Y15	Z15	X16	Y16	Z16	X17	Y17	Z17	X18	Y18	Z18	X19	Y19	Z19	X20	Y20	Z20	X21	Y21	Z21	X22	Y22	Z22	X23	Y23	Z23	X24	Y24	Z24	X25	Y25	Z25	X26	Y26	Z26	X27	Y27	Z27	X28	Y28	Z28	X29	Y29	Z29	X30	Y30	Z30	X31	Y31	Z31	X32	Y32	Z32	X33	Y33	Z33	X34	Y34	Z34	X35	Y35	Z35	X36	Y36	Z36	X37	Y37	Z37	X38	Y38	Z38	X39	Y39	Z39	X40	Y40	Z40	X41	Y41	Z41	X42	Y42	Z42	X43	Y43	Z43	X44	Y44	Z44	

234	2.330	1380.48523	100.83311	1669.02026	1491.57800	123.62608	1678.04468	1399.37671	0.43301	1597.14685	1517.44604	22.25592	1605.00098	1431.78455	1.64685	1418.50903	1434.38550	-27.08319	1126.77271	1427.31116	147.47484	1354.50281	1415.65771	192.09933	1198.63733	1501.79468	-47.41982	1221.86267	1269.60474	82.42142	1386.60278	1181.25317	75.30251	1203.90039	1173.99365	92.97243	1051.52747	1155.92883	173.23372	965.91333	1181.94983	289.49689	894.79767	1157.70032	243.53844	866.00946	1149.14319	317.15976	825.73804	1579.94727	83.33446	1377.31616	1672.67834	17.16757	1177.59375	1675.47546	13.90269	1053.52734	1707.87964	35.93320	935.43561	1696.61328	114.37622	817.02350	1731.85120	67.55367	818.79401	1730.58887	102.06826	739.23157	1316.93103	134.96635	913.17371	1532.14734	155.75349	928.80719	1388.82532	-45.31412	932.81146	1534.19800	-30.13089	939.22821	1278.09644	41.72943	586.75110	1295.65027	1.02195	456.17297	1291.41455	-102.14036	296.51340	1347.48938	-187.74707	93.40874	1403.10095	-235.13623	73.10986	1330.26941	-53.50336	32.33569	1600.86768	172.87013	606.13446	1571.62195	223.01952	457.51645	1585.75684	209.17831	282.13361	1544.02209	223.14795	76.00851	1495.78064	176.65768	34.41970	1538.45288	364.19745	45.01200	1471.21643	101.38386	1707.46228	-3101.88501	1973.17981	1023.56213	-3140.77466	2012.50061	1022.08673						 
235	2.340	1383.04407	107.65287	1669.77075	1493.95288	130.16426	1678.45850	1401.80481	7.02656	1597.78687	1519.81897	28.91802	1605.36658	1433.58289	8.32142	1418.94202	1435.79211	-20.29502	1127.54907	1429.37341	154.29555	1355.23499	1417.54810	198.99091	1199.37915	1503.21936	-40.54654	1222.23975	1271.58105	89.44132	1387.32214	1183.19397	81.82372	1204.64722	1176.05835	98.87026	1052.24548	1157.75085	178.12970	965.82581	1183.47656	293.65244	893.43274	1159.26038	247.37425	865.15594	1150.55261	320.46054	824.01227	1581.87952	89.83115	1377.79822	1674.18726	24.25179	1177.65259	1676.86621	21.45591	1053.73804	1709.02417	43.56848	935.68146	1697.58997	121.99898	817.26941	1732.62451	75.14948	818.90778	1731.65332	109.69440	739.51196	1318.67676	142.42737	913.69391	1534.02100	162.66269	929.48761	1390.05176	-37.76820	933.53235	1535.60864	-23.28180	940.23370	1279.18005	50.16285	587.01208	1296.15613	9.76414	456.26141	1291.58594	-96.10916	298.35214	1346.83032	-185.73582	96.67299	1402.52930	-233.50394	77.72045	1330.15686	-53.23245	32.48005	1601.57935	180.27739	606.41937	1572.38354	228.36440	457.27112	1586.44348	212.54456	281.79553	1544.10388	224.06798	75.86367	1496.16125	177.23491	34.95279	1538.79407	364.85364	43.76200	1473.82080	107.99871	1708.00879	-3102.02954	1973.06848	1023.51697	-3140.78125	2012.52698	1021.95264						 
236	2.350	1385.46729	114.10777	1670.57129	1496.55884	136.96275	1679.15540	1404.23279	13.66334	1598.58936	1522.22131	35.61961	1605.94641	1435.58545	15.02943	1419.73462	1437.01343	-13.03535	1127.99121	1431.49304	161.12674	1356.13232	1419.52490	205.91638	1200.20728	1504.74768	-33.69120	1222.81177	1273.59851	96.42090	1388.16296	1185.08582	88.48978	1205.61560	1178.23962	104.68614	1053.08020	1159.62927	182.79350	965.71552	1185.02051	297.63846	891.93445	1160.75793	250.98280	864.28656	1152.13623	323.60004	822.35400	1583.90613	96.37717	1378.51196	1675.74829	31.28342	1177.97717	1678.30835	28.91471	1054.17896	1710.21252	51.23640	936.12274	1698.59082	129.78931	817.77893	1733.69739	82.81346	819.41077	1732.56213	117.44511	739.93823	1321.14783	151.02470	914.90442	1536.10583	169.84682	930.29767	1391.33057	-30.17757	934.39569	1536.89734	-16.03121	941.15802	1280.35767	59.10715	587.27905	1296.45679	19.24046	456.30627	1291.67078	-89.56100	300.29300	1346.16284	-183.51137	100.44561	1401.80408	-231.65863	82.80183	1330.05396	-52.95319	32.50401	1602.67590	187.14699	606.98926	1573.25916	233.45657	457.06836	1586.97510	215.55096	281.42227	1544.16248	224.86545	75.80199	1496.14856	177.00087	35.82325	1538.47607	365.42032	42.54455	1476.41589	114.69386	1708.67468	-3102.02368	1973.04944	1023.54706	-3140.67432	2012.48840	1021.91187						 
237	2.360	1387.94653	120.84509	1671.49744	1498.98645	143.66093	1679.85681	1406.48315	20.09935	1599.54846	1524.54358	42.30537	1606.60840	1437.37769	21.86231	1420.31567	1438.47388	-6.03178	1128.69189	1433.57837	167.90517	1357.05859	1421.65247	212.93880	1201.17444	1506.37720	-26.71848	1223.36609	1275.64355	103.34245	1389.11218	1186.76819	95.23148	1206.53210	1180.38635	110.32684	1053.77588	1161.37024	187.32651	965.64331	1186.59668	301.32990	890.35754	1162.21594	254.29939	863.45648	1153.70337	326.53381	820.55908	1585.87439	102.93770	1379.35486	1677.44238	38.30838	1178.51050	1679.75073	36.35071	1054.74536	1711.44238	58.91702	936.73566	1699.60657	137.59735	818.44702	1734.90588	90.75108	820.11346	1733.49365	125.30252	740.53320	1322.79846	158.46690	915.77490	1538.13062	176.96561	931.09613	1392.69104	-22.68292	935.37311	1538.21191	-9.10482	942.04254	1281.35388	68.57727	587.46527	1296.62439	29.63308	456.45853	1291.61462	-82.30392	302.28024	1345.34155	-180.81779	104.52930	1401.09778	-229.21669	88.32964	1329.98621	-52.55616	32.58654	1603.92517	193.04683	607.46869	1574.24402	237.94398	456.81104	1587.58716	218.41466	281.23602	1544.11340	225.47600	75.61787	1496.12915	177.16794	35.88105	1537.94336	365.96600	41.59806	1478.94556	121.42146	1709.41248	-3101.85718	1973.05310	1023.39050	-3140.64478	2012.42017	1021.99152						 
